<svg width="37" height="29" viewBox="0 0 37 29" fill="none" xmlns="http://www.w3.org/2000/svg">
<path d="M37 0L35.8545 3.22222H32.8807L27.5249 22.5556H7.11479L0 4.83333H25.9185L25.049 8.05556H4.63733L9.16521 19.3333H25.2417L30.5327 0H37V0ZM13.1042 24.1667C11.8277 24.1667 10.7917 25.2493 10.7917 26.5833C10.7917 27.9189 11.8277 29 13.1042 29C14.3807 29 15.4167 27.9189 15.4167 26.5833C15.4167 25.2493 14.3807 24.1667 13.1042 24.1667ZM23.7417 12.8889L20.8125 24.1667C19.536 24.1667 18.5 25.2477 18.5 26.5833C18.5 27.9189 19.536 29 20.8125 29C22.089 29 23.125 27.9189 23.125 26.5833C23.125 25.2493 22.089 24.1667 20.8125 24.1667L23.7417 12.8889Z" fill="white"/>
</svg>
